# xmcd
#
# Track frame offsets: 
#        150
#        22502
#        41077
#        57232
#        72550
#        88902
#        104055
#        120520
#        139225
#        156977
#        172459
#        189195
#
# Disc length: 2760 seconds
#
# Revision: 0
# Processed by: cddbd v1.5.1PL2 Copyright (c) Steve Scherf et al.
# Submitted via: ExactAudioCopy v0.95b4
#
DISCID=ad0ac60c
DTITLE=ไวพจน์  เพชรสุพรรณ - โบว์รักสีดำ
DYEAR=2000
DGENRE=Country
TTITLE0=โบว์รักสีดำ
TTITLE1=แห่นางแมว
TTITLE2=ผู้จัดการห้องน้ำ
TTITLE3=เสือขี้เมา
TTITLE4=สาวชำน้อย
TTITLE5=สาวท่าแร่
TTITLE6=ขอเบิ่งหัวใจ
TTITLE7=ซิ่งสะเด็ด
TTITLE8=ขาดปั๊ด
TTITLE9=สิงห์ยาดอง
TTITLE10=หนุ่ม H.I.V.
TTITLE11=สุ่งส่าง
EXTD=
EXTT0=
EXTT1=
EXTT2=
EXTT3=
EXTT4=
EXTT5=
EXTT6=
EXTT7=
EXTT8=
EXTT9=
EXTT10=
EXTT11=
PLAYORDER=
